<svg width="20" height="20" viewBox="0 0 20 20" fill="none" xmlns="http://www.w3.org/2000/svg">
<path d="M12.5 1.66675H7.49999C7.03975 1.66675 6.66666 2.03984 6.66666 2.50008V4.16675C6.66666 4.62699 7.03975 5.00008 7.49999 5.00008H12.5C12.9602 5.00008 13.3333 4.62699 13.3333 4.16675V2.50008C13.3333 2.03984 12.9602 1.66675 12.5 1.66675Z" stroke="#3B82F6" stroke-width="2" stroke-linecap="round" stroke-linejoin="round"/>
<path d="M13.3333 3.33325H15C15.442 3.33325 15.866 3.50885 16.1785 3.82141C16.4911 4.13397 16.6667 4.55789 16.6667 4.99992V16.6666C16.6667 17.1086 16.4911 17.5325 16.1785 17.8451C15.866 18.1577 15.442 18.3333 15 18.3333H5.00001C4.55798 18.3333 4.13406 18.1577 3.8215 17.8451C3.50894 17.5325 3.33334 17.1086 3.33334 16.6666V4.99992C3.33334 4.55789 3.50894 4.13397 3.8215 3.82141C4.13406 3.50885 4.55798 3.33325 5.00001 3.33325H6.66668" stroke="#3B82F6" stroke-width="2" stroke-linecap="round" stroke-linejoin="round"/>
<path d="M10 9.16675H13.3333" stroke="#3B82F6" stroke-width="2" stroke-linecap="round" stroke-linejoin="round"/>
<path d="M10 13.3333H13.3333" stroke="#3B82F6" stroke-width="2" stroke-linecap="round" stroke-linejoin="round"/>
<path d="M6.66666 9.16675H6.67499" stroke="#3B82F6" stroke-width="2" stroke-linecap="round" stroke-linejoin="round"/>
<path d="M6.66666 13.3333H6.67499" stroke="#3B82F6" stroke-width="2" stroke-linecap="round" stroke-linejoin="round"/>
</svg>
