<svg width="20" height="20" viewBox="0 0 20 20" fill="none" xmlns="http://www.w3.org/2000/svg">
<g clip-path="url(#clip0_1_708)">
<path d="M11.6667 14.9999V4.99992C11.6667 4.55789 11.4911 4.13397 11.1785 3.82141C10.866 3.50885 10.442 3.33325 10 3.33325H3.33334C2.89131 3.33325 2.46739 3.50885 2.15483 3.82141C1.84227 4.13397 1.66667 4.55789 1.66667 4.99992V14.1666C1.66667 14.3876 1.75447 14.5996 1.91075 14.7558C2.06703 14.9121 2.27899 14.9999 2.50001 14.9999H4.16667" stroke="#CBD5E1" stroke-width="2" stroke-linecap="round" stroke-linejoin="round"/>
<path d="M12.5 15H7.5" stroke="#CBD5E1" stroke-width="2" stroke-linecap="round" stroke-linejoin="round"/>
<path d="M15.8333 15.0001H17.5C17.721 15.0001 17.933 14.9123 18.0893 14.756C18.2455 14.5997 18.3333 14.3878 18.3333 14.1667V11.1251C18.333 10.936 18.2683 10.7526 18.15 10.6051L15.25 6.98008C15.1721 6.88248 15.0732 6.80365 14.9607 6.74941C14.8482 6.69518 14.7249 6.66693 14.6 6.66675H11.6667" stroke="#CBD5E1" stroke-width="2" stroke-linecap="round" stroke-linejoin="round"/>
<path d="M14.1667 16.6666C15.0871 16.6666 15.8333 15.9204 15.8333 14.9999C15.8333 14.0794 15.0871 13.3333 14.1667 13.3333C13.2462 13.3333 12.5 14.0794 12.5 14.9999C12.5 15.9204 13.2462 16.6666 14.1667 16.6666Z" stroke="#CBD5E1" stroke-width="2" stroke-linecap="round" stroke-linejoin="round"/>
<path d="M5.83334 16.6666C6.75381 16.6666 7.50001 15.9204 7.50001 14.9999C7.50001 14.0794 6.75381 13.3333 5.83334 13.3333C4.91286 13.3333 4.16667 14.0794 4.16667 14.9999C4.16667 15.9204 4.91286 16.6666 5.83334 16.6666Z" stroke="#CBD5E1" stroke-width="2" stroke-linecap="round" stroke-linejoin="round"/>
</g>
<defs>
<clipPath id="clip0_1_708">
<rect width="20" height="20" fill="white"/>
</clipPath>
</defs>
</svg>
